<?xml version="1.0" standalone="no"?>
<!DOCTYPE svg PUBLIC "-//W3C//DTD SVG 20010904//EN"
 "http://www.w3.org/TR/2001/REC-SVG-20010904/DTD/svg10.dtd">
<svg version="1.0" xmlns="http://www.w3.org/2000/svg"
 width="512.000000pt" height="512.000000pt" viewBox="0 0 512.000000 512.000000"
 preserveAspectRatio="xMidYMid meet">
<metadata>
Created by potrace 1.11, written by Peter Selinger 2001-2013
</metadata>
<g transform="translate(0.000000,512.000000) scale(0.100000,-0.100000)"
fill="#000000" stroke="none">
<path d="M3464 4772 c-44 -15 -99 -40 -122 -56 -121 -84 -193 -220 -218 -411
-3 -28 -7 -656 -9 -1395 -1 -740 -5 -1357 -9 -1372 -3 -16 -8 -40 -11 -55 -35
-205 -111 -339 -229 -408 -100 -58 -306 -74 -436 -33 -83 26 -174 109 -223
203 -29 57 -103 310 -123 423 -10 52 -56 177 -87 236 -80 150 -228 229 -413
220 -234 -12 -397 -145 -449 -366 -30 -130 -7 -389 55 -597 123 -414 333 -688
649 -846 56 -28 198 -82 235 -89 6 -2 29 -8 51 -14 44 -12 83 -18 230 -37 96
-12 456 -13 535 0 174 26 280 54 415 107 328 129 586 384 716 708 55 138 100
321 114 465 16 160 18 308 19 1510 2 1370 1 1386 -45 1512 -55 145 -142 234
-286 290 -55 21 -88 26 -173 29 -91 2 -116 -1 -186 -24z"/>
</g>
</svg>
